<?xml version="1.0" standalone="no"?>
<!DOCTYPE svg PUBLIC "-//W3C//DTD SVG 20010904//EN"
 "http://www.w3.org/TR/2001/REC-SVG-20010904/DTD/svg10.dtd">
<svg version="1.0" xmlns="http://www.w3.org/2000/svg"
 width="128.000000pt" height="128.000000pt" viewBox="0 0 128.000000 128.000000"
 preserveAspectRatio="xMidYMid meet">

<g transform="translate(0.000000,128.000000) scale(0.100000,-0.100000)"
fill="#000000" stroke="none">
<path d="M585 1189 l-30 -7 32 -1 c45 -1 49 -17 5 -18 -54 -2 -143 -19 -174
-33 -15 -7 -32 -26 -37 -42 -6 -17 -23 -45 -38 -62 -16 -18 -33 -41 -40 -52
-11 -18 -12 -17 -12 8 -1 25 -4 27 -31 25 -17 -2 -33 -7 -37 -10 -3 -4 -16 -7
-27 -8 -14 -1 -9 -4 14 -12 29 -9 31 -11 13 -14 -19 -4 -21 -9 -16 -39 5 -33
4 -34 -26 -34 -17 0 -31 -2 -31 -5 0 -20 33 -63 51 -68 20 -5 20 -7 6 -21 -9
-9 -24 -16 -34 -16 -37 0 -61 -12 -72 -36 -6 -14 -16 -22 -21 -19 -11 7 -13
-37 -4 -72 10 -37 44 -11 44 32 0 19 4 35 9 35 5 0 11 8 13 18 7 24 97 40 110
20 11 -18 -19 -38 -58 -38 -36 0 -47 -10 -38 -33 6 -15 38 -13 61 6 7 5 23 7
36 3 19 -4 27 -18 40 -66 10 -33 25 -68 35 -78 9 -10 23 -28 29 -40 12 -19 10
-23 -17 -37 -16 -8 -40 -15 -53 -15 -15 0 -28 -9 -37 -25 -16 -29 -28 -21 -36
21 -7 41 -29 70 -74 100 -47 32 -66 25 -45 -16 20 -38 19 -46 -2 -28 -10 8
-33 22 -51 31 l-34 16 7 -41 c24 -141 113 -288 229 -377 29 -23 56 -41 60 -41
4 0 7 17 5 38 -3 64 -1 70 26 64 20 -3 25 0 25 15 0 11 -9 28 -20 38 -11 10
-20 24 -20 31 0 7 -18 15 -40 19 -50 8 -51 20 -3 36 33 10 35 13 18 20 -17 6
-16 8 8 8 16 1 26 -3 23 -8 -3 -4 5 -6 18 -4 30 6 81 -20 128 -64 33 -32 38
-34 52 -21 9 9 25 13 41 10 17 -3 30 1 38 12 9 12 54 19 205 33 l192 17 0 52
c0 60 -3 58 150 70 63 5 97 12 107 23 15 14 14 16 -8 21 -13 4 -40 3 -59 -1
-19 -4 -72 -9 -118 -13 l-83 -5 3 42 3 42 80 11 c83 11 138 31 129 45 -3 5 0
9 5 9 22 0 11 41 -14 52 -29 13 -42 60 -23 83 7 9 22 25 32 35 19 19 17 19
-85 14 -57 -3 -109 -7 -116 -9 -7 -2 -14 -31 -16 -72 -2 -37 -3 21 -3 131 l1
198 -50 -6 c-27 -3 -61 -6 -74 -6 l-25 0 25 -27 c44 -48 70 -103 71 -150 0
-24 -2 -47 -6 -50 -3 -3 -1 -12 6 -20 8 -10 8 -20 1 -36 -6 -12 -16 -41 -22
-63 -6 -23 -18 -47 -26 -54 -25 -20 -17 -38 18 -43 l32 -4 -32 -1 c-28 -2 -33
-6 -33 -26 0 -34 -24 -97 -56 -147 -15 -24 -27 -45 -25 -47 1 -1 -7 -11 -17
-22 -31 -34 -72 -34 -117 -2 -22 16 -39 34 -37 41 1 6 -5 11 -13 11 -8 0 -15
4 -15 9 0 15 32 6 42 -12 10 -19 45 -22 68 -7 13 9 13 11 0 20 -8 5 -23 10
-33 10 -10 0 -21 8 -24 18 -4 9 -13 23 -20 30 -18 19 -16 32 5 32 30 1 64 34
60 61 -2 19 -10 25 -40 29 -29 4 -36 8 -28 19 7 13 11 13 25 1 14 -12 18 -12
26 1 10 17 11 46 0 74 -7 18 -9 17 -24 -12 -9 -17 -25 -38 -35 -45 -9 -7 -23
-25 -29 -40 -7 -15 -24 -34 -38 -44 -16 -10 -25 -26 -25 -43 -1 -25 -1 -25
-15 -6 -8 11 -25 33 -37 49 -24 30 -25 33 -34 85 -5 26 -4 32 6 26 8 -5 10 -2
7 11 -4 11 -9 31 -13 47 -7 29 -18 33 -58 17 -37 -14 -32 4 10 36 33 26 42 27
144 28 101 1 107 2 82 16 l-27 14 35 6 c49 9 78 29 90 64 12 36 12 39 0 31 -5
-3 -10 3 -10 15 0 12 -4 18 -10 15 -16 -10 -11 11 6 26 13 11 15 11 14 -2 -4
-27 0 -40 11 -34 6 4 8 13 5 20 -3 8 2 19 10 25 15 13 19 31 7 29 -20 -3 -21
3 -8 35 13 30 13 35 -4 50 -10 9 -23 16 -30 16 -10 0 -67 35 -81 50 -3 3 -18
3 -35 -1z m19 -59 c6 0 18 6 25 13 11 10 11 8 0 -10 -7 -12 -24 -25 -38 -28
-32 -8 -45 14 -23 38 15 17 17 17 20 3 2 -9 9 -16 16 -16z m31 -50 c-16 -16
-31 -28 -34 -25 -2 3 8 19 24 35 16 16 31 28 34 25 2 -3 -8 -19 -24 -35z
m-415 -244 c0 -9 -7 -12 -20 -9 -11 3 -20 9 -20 14 0 5 9 9 20 9 11 0 20 -6
20 -14z m-159 -358 c16 -31 17 -39 6 -30 -14 12 -41 72 -32 72 3 0 14 -19 26
-42z m110 -51 c5 -11 8 -21 5 -24 -7 -8 -33 48 -40 87 -6 35 -6 35 9 -5 8 -22
20 -48 26 -58z"/>
<path d="M802 1033 c-7 -12 -2 -29 17 -62 15 -25 28 -64 30 -86 3 -47 7 -53
23 -37 9 9 9 18 0 37 -7 15 -8 25 -2 25 18 0 10 40 -16 80 -15 22 -31 40 -37
40 -6 0 -8 3 -5 6 4 3 17 1 30 -6 22 -11 22 -10 4 4 -25 20 -33 20 -44 -1z"/>
<path d="M70 930 l-20 -40 45 0 c48 0 52 4 30 34 -8 10 -12 22 -10 26 3 5 -2
10 -10 14 -10 4 -21 -7 -35 -34z"/>
<path d="M735 823 c-19 -15 -19 -15 5 -9 14 3 34 6 44 6 23 0 16 9 -10 14 -11
2 -28 -3 -39 -11z"/>
<path d="M1240 811 c5 -11 7 -27 4 -35 -3 -9 -1 -16 5 -16 6 0 11 6 11 13 0
24 -13 57 -22 57 -5 0 -4 -8 2 -19z"/>
<path d="M473 793 c-7 -2 -13 -9 -13 -14 0 -6 5 -7 10 -4 6 3 10 2 10 -4 0 -5
-4 -13 -10 -16 -17 -10 -11 -52 8 -59 9 -3 23 -9 30 -12 7 -4 10 0 6 9 -3 9 3
16 15 20 12 3 21 13 21 22 0 26 25 11 26 -16 0 -16 5 -23 15 -21 20 5 49 33
49 47 0 21 -46 37 -98 34 -39 -3 -48 -1 -40 9 11 13 -4 16 -29 5z m97 -27 c0
-9 -30 -14 -35 -6 -4 6 3 10 14 10 12 0 21 -2 21 -4z"/>
<path d="M578 793 c7 -3 16 -2 19 1 4 3 -2 6 -13 5 -11 0 -14 -3 -6 -6z"/>
<path d="M745 770 c-3 -5 -1 -10 4 -10 6 0 11 -7 11 -15 0 -8 7 -15 15 -15 19
0 19 17 1 36 -17 17 -23 17 -31 4z"/>
<path d="M881 738 c-9 -14 -9 -24 -2 -31 7 -7 12 -1 17 17 8 34 2 41 -15 14z"/>
<path d="M10 719 c0 -5 5 -7 10 -4 6 3 10 8 10 11 0 2 -4 4 -10 4 -5 0 -10 -5
-10 -11z"/>
<path d="M275 580 c10 -11 20 -18 23 -15 7 6 -18 35 -31 35 -5 0 -2 -9 8 -20z"/>
<path d="M723 582 c-13 -2 -23 -10 -23 -18 0 -12 4 -12 20 -4 12 6 30 8 40 5
11 -4 20 -4 20 -1 0 11 -36 22 -57 18z"/>
<path d="M1222 550 c0 -14 2 -19 5 -12 2 6 2 18 0 25 -3 6 -5 1 -5 -13z"/>
<path d="M785 541 c-3 -6 -10 -9 -15 -6 -5 3 -11 1 -14 -3 -3 -5 6 -14 20 -20
20 -10 26 -9 31 4 7 19 -12 41 -22 25z"/>
<path d="M430 279 c14 -6 39 -22 55 -37 25 -22 24 -20 -4 11 -20 21 -44 37
-55 36 -18 0 -18 -1 4 -10z"/>
<path d="M911 283 c-35 -3 -60 -11 -74 -24 -11 -10 -24 -19 -29 -19 -4 0 -8
-13 -8 -28 0 -15 -6 -34 -12 -42 -11 -12 -10 -12 2 -3 25 18 103 43 137 43 27
0 34 -5 39 -26 9 -33 -2 -43 -54 -46 -23 -2 -42 -5 -42 -8 0 -3 14 -18 31 -33
18 -16 29 -21 25 -11 -5 12 -1 14 15 9 11 -4 30 0 44 9 22 14 23 21 22 98 -2
94 4 88 -96 81z"/>
<path d="M676 265 c-3 -9 -6 -29 -6 -43 0 -19 -3 -23 -9 -13 -7 10 -12 8 -25
-10 -32 -46 -7 -87 37 -60 18 12 19 11 12 -6 -5 -10 -11 -42 -13 -70 l-4 -53
32 0 33 0 -6 52 c-9 70 -34 209 -40 214 -3 3 -7 -2 -11 -11z m1 -97 c-3 -8 -6
-5 -6 6 -1 11 2 17 5 13 3 -3 4 -12 1 -19z"/>
<path d="M810 140 l-35 -7 32 -2 c17 0 35 4 38 9 3 6 5 9 3 9 -2 -1 -19 -5
-38 -9z"/>
<path d="M400 133 c0 -13 29 -38 35 -31 3 3 -4 13 -15 23 -11 10 -20 13 -20 8z"/>
<path d="M748 133 c7 -3 16 -2 19 1 4 3 -2 6 -13 5 -11 0 -14 -3 -6 -6z"/>
<path d="M427 83 c-11 -10 -8 -43 3 -43 6 0 10 11 10 25 0 26 -2 29 -13 18z"/>
</g>
</svg>
